<svg xmlns="http://www.w3.org/2000/svg" viewBox="0 0 960 300" font-family="Helvetica,Arial,sans-serif">
<defs>
<marker id="m" viewBox="0 0 10 10" refX="8" refY="5" markerWidth="6.5" markerHeight="6.5" orient="auto-start-reverse"><path d="M0,0L10,5L0,10z" fill="#2b2b2b"/></marker>
<marker id="mr" viewBox="0 0 10 10" refX="8" refY="5" markerWidth="6.5" markerHeight="6.5" orient="auto-start-reverse"><path d="M0,0L10,5L0,10z" fill="#d64545"/></marker>
<marker id="mg" viewBox="0 0 10 10" refX="8" refY="5" markerWidth="6" markerHeight="6" orient="auto-start-reverse"><path d="M0,0L10,5L0,10z" fill="#999"/></marker>
<linearGradient id="g12" x1="0" y1="0" x2="1" y2="0"><stop offset="0" stop-color="#a8d5a2"/><stop offset="1" stop-color="#a7c7e7"/></linearGradient>
<linearGradient id="g45" x1="0" y1="0" x2="1" y2="0"><stop offset="0" stop-color="#f6c98f"/><stop offset="1" stop-color="#c3b1e1"/></linearGradient>
</defs>
<rect x="0" y="0" width="960" height="300" fill="#fff"/>
<rect x="12" y="12" width="304" height="276" rx="12" fill="#fcfcfd" stroke="#cfd4da" stroke-width="1.4"/>
<rect x="328" y="12" width="304" height="276" rx="12" fill="#fcfcfd" stroke="#cfd4da" stroke-width="1.4"/>
<rect x="644" y="12" width="304" height="276" rx="12" fill="#f7fafd" stroke="#2b6cb0" stroke-width="1.8"/>
<text x="164" y="40" font-size="16" font-weight="700" fill="#2b2b2b" text-anchor="middle">Depth Truncation</text>
<text x="164" y="57" font-size="11" fill="#777" text-anchor="middle">skip layers</text>
<text x="480" y="40" font-size="16" font-weight="700" fill="#2b2b2b" text-anchor="middle">Width Truncation</text>
<text x="480" y="57" font-size="11" fill="#777" text-anchor="middle">prune experts</text>
<text x="796" y="40" font-size="16" font-weight="700" fill="#1d4f80" text-anchor="middle">SMergeMoE</text>
<text x="796" y="57" font-size="11" fill="#777" text-anchor="middle">merge experts</text>
<rect x="59.0" y="76" width="210" height="20" rx="5" fill="#eef4fb" stroke="#5b8fc9" stroke-width="1.3"/>
<text x="164" y="90.0" font-size="11" font-weight="600" fill="#2b6cb0" text-anchor="middle">layer</text>
<rect x="59.0" y="104" width="210" height="44" rx="5" fill="#f4f4f4" stroke="#b6b6b6" stroke-width="1.3" stroke-dasharray="4 3"/>
<rect x="83" y="115.0" width="22" height="22" rx="3" fill="#e5e5e5" stroke="#bbb" stroke-width="1" stroke-dasharray="2 2"/><text x="94" y="130.0" font-size="8.5" font-weight="600" fill="#999" text-anchor="middle">E1</text>
<rect x="111" y="115.0" width="22" height="22" rx="3" fill="#e5e5e5" stroke="#bbb" stroke-width="1" stroke-dasharray="2 2"/><text x="122" y="130.0" font-size="8.5" font-weight="600" fill="#999" text-anchor="middle">E2</text>
<rect x="139" y="115.0" width="22" height="22" rx="3" fill="#e5e5e5" stroke="#bbb" stroke-width="1" stroke-dasharray="2 2"/><text x="150" y="130.0" font-size="8.5" font-weight="600" fill="#999" text-anchor="middle">E3</text>
<rect x="167" y="115.0" width="22" height="22" rx="3" fill="#e5e5e5" stroke="#bbb" stroke-width="1" stroke-dasharray="2 2"/><text x="178" y="130.0" font-size="8.5" font-weight="600" fill="#999" text-anchor="middle">E4</text>
<rect x="195" y="115.0" width="22" height="22" rx="3" fill="#e5e5e5" stroke="#bbb" stroke-width="1" stroke-dasharray="2 2"/><text x="206" y="130.0" font-size="8.5" font-weight="600" fill="#999" text-anchor="middle">E5</text>
<rect x="223" y="115.0" width="22" height="22" rx="3" fill="#e5e5e5" stroke="#bbb" stroke-width="1" stroke-dasharray="2 2"/><text x="234" y="130.0" font-size="8.5" font-weight="600" fill="#999" text-anchor="middle">E6</text>
<text x="291" y="124.0" font-size="9" font-weight="600" fill="#999" text-anchor="middle">skipped</text>
<text x="291" y="136.0" font-size="9" font-weight="600" fill="#999" text-anchor="middle">layer</text>
<rect x="59.0" y="156" width="210" height="44" rx="5" fill="#f5f8fc" stroke="#5b8fc9" stroke-width="1.3"/>
<rect x="83" y="167.0" width="22" height="22" rx="3" fill="#a8d5a2" stroke="#666" stroke-width="1"/><text x="94" y="182.0" font-size="8.5" font-weight="600" fill="#2b2b2b" text-anchor="middle">E1</text>
<rect x="111" y="167.0" width="22" height="22" rx="3" fill="#a7c7e7" stroke="#666" stroke-width="1"/><text x="122" y="182.0" font-size="8.5" font-weight="600" fill="#2b2b2b" text-anchor="middle">E2</text>
<rect x="139" y="167.0" width="22" height="22" rx="3" fill="#f2a7a7" stroke="#666" stroke-width="1"/><text x="150" y="182.0" font-size="8.5" font-weight="600" fill="#2b2b2b" text-anchor="middle">E3</text>
<rect x="167" y="167.0" width="22" height="22" rx="3" fill="#f6c98f" stroke="#666" stroke-width="1"/><text x="178" y="182.0" font-size="8.5" font-weight="600" fill="#2b2b2b" text-anchor="middle">E4</text>
<rect x="195" y="167.0" width="22" height="22" rx="3" fill="#c3b1e1" stroke="#666" stroke-width="1"/><text x="206" y="182.0" font-size="8.5" font-weight="600" fill="#2b2b2b" text-anchor="middle">E5</text>
<rect x="223" y="167.0" width="22" height="22" rx="3" fill="#d9d9d9" stroke="#666" stroke-width="1"/><text x="234" y="182.0" font-size="8.5" font-weight="600" fill="#2b2b2b" text-anchor="middle">E6</text>
<text x="291" y="176.0" font-size="9" font-weight="600" fill="#2b6cb0" text-anchor="middle">kept</text>
<text x="291" y="188.0" font-size="9" font-weight="600" fill="#2b6cb0" text-anchor="middle">layer</text>
<rect x="59.0" y="208" width="210" height="20" rx="5" fill="#f0f0f0" stroke="#b6b6b6" stroke-width="1.2" stroke-dasharray="4 3"/>
<text x="164" y="222.0" font-size="10.5" fill="#aaa" text-anchor="middle">skipped</text>
<rect x="59.0" y="236" width="210" height="20" rx="5" fill="#eef4fb" stroke="#5b8fc9" stroke-width="1.3"/>
<text x="164" y="250.0" font-size="11" font-weight="600" fill="#2b6cb0" text-anchor="middle">layer</text>
<path d="M 57 96 C 42 118, 42 134, 57 156" fill="none" stroke="#999" stroke-width="1.4" stroke-dasharray="4 3" marker-end="url(#mg)"/>
<path d="M 57 200 C 44 212, 44 224, 57 236" fill="none" stroke="#999" stroke-width="1.4" stroke-dasharray="4 3" marker-end="url(#mg)"/>
<text x="30" y="129" font-size="9" font-weight="600" fill="#999" text-anchor="middle">skip</text>
<rect x="348" y="168" width="40" height="26" rx="5" fill="#a8d5a2" stroke="#555" stroke-width="1.2"/><text x="368.0" y="185.5" font-size="12" font-weight="600" fill="#2b2b2b" text-anchor="middle">E1</text>
<rect x="393" y="168" width="40" height="26" rx="5" fill="#a7c7e7" stroke="#555" stroke-width="1.2"/><text x="413.0" y="185.5" font-size="12" font-weight="600" fill="#2b2b2b" text-anchor="middle">E2</text>
<rect x="438" y="168" width="40" height="26" rx="5" fill="#e5e5e5" stroke="#bbb" stroke-width="1.2" stroke-dasharray="3 2"/><text x="458.0" y="185.5" font-size="12" font-weight="600" fill="#999" text-anchor="middle">E3</text>
<rect x="483" y="168" width="40" height="26" rx="5" fill="#e5e5e5" stroke="#bbb" stroke-width="1.2" stroke-dasharray="3 2"/><text x="503.0" y="185.5" font-size="12" font-weight="600" fill="#999" text-anchor="middle">E4</text>
<rect x="528" y="168" width="40" height="26" rx="5" fill="#e5e5e5" stroke="#bbb" stroke-width="1.2" stroke-dasharray="3 2"/><text x="548.0" y="185.5" font-size="12" font-weight="600" fill="#999" text-anchor="middle">E5</text>
<rect x="573" y="168" width="40" height="26" rx="5" fill="#e5e5e5" stroke="#bbb" stroke-width="1.2" stroke-dasharray="3 2"/><text x="593.0" y="185.5" font-size="12" font-weight="600" fill="#999" text-anchor="middle">E6</text>
<rect x="381.5" y="96" width="18" height="18" rx="4" fill="#e8eef6" stroke="#5b8fc9" stroke-width="1.1"/><text x="390.5" y="109" font-size="10" font-weight="600" fill="#2b6cb0" text-anchor="middle">t₁</text>
<rect x="516.5" y="96" width="18" height="18" rx="4" fill="#e8eef6" stroke="#5b8fc9" stroke-width="1.1"/><text x="525.5" y="109" font-size="10" font-weight="600" fill="#2b6cb0" text-anchor="middle">t₂</text>
<path d="M 390.5 114 L 368 168" fill="none" stroke="#2b2b2b" stroke-width="1.4" marker-end="url(#m)"/>
<path d="M 390.5 114 L 413 168" fill="none" stroke="#2b2b2b" stroke-width="1.4" marker-end="url(#m)"/>
<path d="M 525.5 114 L 503 168" fill="none" stroke="#d64545" stroke-width="1.4" stroke-dasharray="4 3" marker-end="url(#mr)"/>
<path d="M 525.5 114 L 548 168" fill="none" stroke="#d64545" stroke-width="1.4" stroke-dasharray="4 3" marker-end="url(#mr)"/>
<path d="M 483 202 L 483 210 L 568 210 L 568 202" fill="none" stroke="#d64545" stroke-width="1.4" stroke-dasharray="4 3"/>
<text x="525.5" y="226" font-size="10.5" font-weight="600" fill="#d64545" text-anchor="middle">uncovered</text>
<rect x="680" y="106" width="38" height="22" rx="5" fill="#a8d5a2" stroke="#555" stroke-width="1.2"/><text x="699.0" y="121.5" font-size="11" font-weight="600" fill="#2b2b2b" text-anchor="middle">E1</text>
<rect x="722" y="106" width="38" height="22" rx="5" fill="#a7c7e7" stroke="#555" stroke-width="1.2"/><text x="741.0" y="121.5" font-size="11" font-weight="600" fill="#2b2b2b" text-anchor="middle">E2</text>
<rect x="764" y="106" width="38" height="22" rx="5" fill="#e5e5e5" stroke="#bbb" stroke-width="1.2" stroke-dasharray="3 2"/><text x="783.0" y="121.5" font-size="11" font-weight="600" fill="#999" text-anchor="middle">E3</text>
<rect x="806" y="106" width="38" height="22" rx="5" fill="#f6c98f" stroke="#555" stroke-width="1.2"/><text x="825.0" y="121.5" font-size="11" font-weight="600" fill="#2b2b2b" text-anchor="middle">E4</text>
<rect x="848" y="106" width="38" height="22" rx="5" fill="#c3b1e1" stroke="#555" stroke-width="1.2"/><text x="867.0" y="121.5" font-size="11" font-weight="600" fill="#2b2b2b" text-anchor="middle">E5</text>
<rect x="890" y="106" width="38" height="22" rx="5" fill="#e5e5e5" stroke="#bbb" stroke-width="1.2" stroke-dasharray="3 2"/><text x="909.0" y="121.5" font-size="11" font-weight="600" fill="#999" text-anchor="middle">E6</text>
<rect x="711.0" y="70" width="18" height="18" rx="4" fill="#e8eef6" stroke="#5b8fc9" stroke-width="1.1"/><text x="720.0" y="83" font-size="10" font-weight="600" fill="#2b6cb0" text-anchor="middle">t₁</text>
<rect x="837.0" y="70" width="18" height="18" rx="4" fill="#e8eef6" stroke="#5b8fc9" stroke-width="1.1"/><text x="846.0" y="83" font-size="10" font-weight="600" fill="#2b6cb0" text-anchor="middle">t₂</text>
<path d="M 720.0 88 L 699.0 106" fill="none" stroke="#2b2b2b" stroke-width="1.3" marker-end="url(#m)"/>
<path d="M 720.0 88 L 741.0 106" fill="none" stroke="#2b2b2b" stroke-width="1.3" marker-end="url(#m)"/>
<path d="M 846.0 88 L 825.0 106" fill="none" stroke="#2b2b2b" stroke-width="1.3" marker-end="url(#m)"/>
<path d="M 846.0 88 L 867.0 106" fill="none" stroke="#2b2b2b" stroke-width="1.3" marker-end="url(#m)"/>
<rect x="674.0" y="176" width="218.0" height="74" rx="10" fill="#eef4fb" stroke="#2b6cb0" stroke-width="1.7"/>
<text x="783.0" y="192" font-size="11" font-weight="700" fill="#1d4f80" text-anchor="middle">GPU-resident draft</text>
<rect x="692.0" y="200" width="56" height="36" rx="7" fill="url(#g12)" stroke="#2b6cb0" stroke-width="1.3"/>
<text x="720.0" y="222" font-size="13" font-weight="600" fill="#2b2b2b" text-anchor="middle">M₁₂</text>
<rect x="818.0" y="200" width="56" height="36" rx="7" fill="url(#g45)" stroke="#2b6cb0" stroke-width="1.3"/>
<text x="846.0" y="222" font-size="13" font-weight="600" fill="#2b2b2b" text-anchor="middle">M₄₅</text>
<path d="M 699.0 128 L 720.0 152" fill="none" stroke="#2b2b2b" stroke-width="1.3"/>
<path d="M 741.0 128 L 720.0 152" fill="none" stroke="#2b2b2b" stroke-width="1.3"/>
<path d="M 720.0 152 L 720.0 174" fill="none" stroke="#2b2b2b" stroke-width="1.6" marker-end="url(#m)"/>
<path d="M 825.0 128 L 846.0 152" fill="none" stroke="#2b2b2b" stroke-width="1.3"/>
<path d="M 867.0 128 L 846.0 152" fill="none" stroke="#2b2b2b" stroke-width="1.3"/>
<path d="M 846.0 152 L 846.0 174" fill="none" stroke="#2b2b2b" stroke-width="1.6" marker-end="url(#m)"/>
<text x="783.0" y="167" font-size="10.5" font-weight="700" fill="#2b2b2b" text-anchor="middle">merge</text>
</svg>
